# xmcd
#
# Track frame offsets: 
#        150
#        13153
#        26783
#        40569
#        55296
#        70650
#        84436
#        97439
#        110755
#        125325
#        140052
#        153055
#        165274
#        177179
#        190025
#        203184
#        216814
#        231227
#        246424
#        260054
#        273057
#        287000
#        299062
#        313789
#        328516
#
# Disc length: 4578 seconds
#
# Revision: 0
# Processed by: cddbd v1.5.1PL0 Copyright (c) Steve Scherf et al.
# Submitted via: ExactAudioCopy v0.95a5
#
DISCID=7711e019
DTITLE=Bessie Smith - Greatest Hits
DYEAR=1933
DGENRE=Blues
TTITLE0=Preachin' the Blues
TTITLE1=Alexander's Ragtime Band
TTITLE2=A Good Man Is Hard To Find
TTITLE3=Mean Old Bed Bug Blues
TTITLE4=Send Me To The 'Lectric Chair
TTITLE5=Thinking Blues
TTITLE6=I'd Rather Be Dead And Buried In My Grave
TTITLE7=Empty Bed Blues Pt1
TTITLE8=Empty Bed Blues Pt2
TTITLE9=Spider Man Blues
TTITLE10=Slow and Easy Man
TTITLE11=I'm Wild About That Thing
TTITLE12=You've Got To Give Me Some
TTITLE13=Nobody Knows You When You're Down And Out
TTITLE14=Wasted Life Blues
TTITLE15=Don't Cry Baby
TTITLE16=Baby Have Pity On Me
TTITLE17=Hustlin' Dan
TTITLE18=Black Mountain Blues
TTITLE19=In The House Blues
TTITLE20=Blue Blue
TTITLE21=I Need A Little Sugar In My Bowl
TTITLE22=Safety Mama
TTITLE23=Do  Your Duty
TTITLE24=Gimme A Pig Foot And A Bottle Of Beer
EXTD=
EXTT0=
EXTT1=
EXTT2=
EXTT3=
EXTT4=
EXTT5=
EXTT6=
EXTT7=
EXTT8=
EXTT9=
EXTT10=
EXTT11=
EXTT12=
EXTT13=
EXTT14=
EXTT15=
EXTT16=
EXTT17=
EXTT18=
EXTT19=
EXTT20=
EXTT21=
EXTT22=
EXTT23=
EXTT24=
PLAYORDER=
